<?xml version="1.0" encoding="UTF-8"?>
<!DOCTYPE svg PUBLIC "-//W3C//DTD SVG 1.1//EN" "http://www.w3.org/Graphics/SVG/1.1/DTD/svg11.dtd">
<svg xmlns="http://www.w3.org/2000/svg" version="1.1" width="28px" height="28px" style="shape-rendering:geometricPrecision; text-rendering:geometricPrecision; image-rendering:optimizeQuality; fill-rule:evenodd; clip-rule:evenodd" xmlns:xlink="http://www.w3.org/1999/xlink">
<g><path style="opacity:0.895" fill="#633c9b" d="M 27.5,5.5 C 27.5,9.83333 27.5,14.1667 27.5,18.5C 25.7439,13.8381 23.0773,9.67146 19.5,6C 16.4985,5.26218 13.8318,4.09551 11.5,2.5C 17.4609,0.574188 22.7942,1.57419 27.5,5.5 Z"/></g>
<g><path style="opacity:0.975" fill="#bfcad3" d="M 11.5,2.5 C 13.8318,4.09551 16.4985,5.26218 19.5,6C 23.0773,9.67146 25.7439,13.8381 27.5,18.5C 27.5,21.5 27.5,24.5 27.5,27.5C 23.8333,27.5 20.1667,27.5 16.5,27.5C 16.665,24.1501 16.4983,20.8168 16,17.5C 13.1594,19.8795 10.3261,22.2129 7.5,24.5C 6.2519,23.9598 5.08524,23.2931 4,22.5C 4.47656,17.8378 5.30989,13.1711 6.5,8.5C 7.16667,8.5 7.5,8.16667 7.5,7.5C 8.67504,7.71901 9.67504,7.38568 10.5,6.5C 9.13347,5.16003 7.80014,3.82669 6.5,2.5C 8.23411,1.43795 9.90078,1.43795 11.5,2.5 Z"/></g>
<g><path style="opacity:0.357" fill="#e36613" d="M -0.5,-0.5 C 0.5,-0.5 1.5,-0.5 2.5,-0.5C 3.79502,0.488369 5.12835,1.48837 6.5,2.5C 7.80014,3.82669 9.13347,5.16003 10.5,6.5C 9.67504,7.38568 8.67504,7.71901 7.5,7.5C 7.15829,6.66175 6.49162,6.32842 5.5,6.5C 3.53982,4.84371 1.53982,3.17704 -0.5,1.5C -0.5,0.833333 -0.5,0.166667 -0.5,-0.5 Z"/></g>
<g><path style="opacity:0.603" fill="#623798" d="M 5.5,6.5 C 6.49162,6.32842 7.15829,6.66175 7.5,7.5C 7.5,8.16667 7.16667,8.5 6.5,8.5C 4.57591,8.28927 4.24258,7.6226 5.5,6.5 Z"/></g>
</svg>
